<?xml version="1.0" standalone="no"?>
<!DOCTYPE svg PUBLIC "-//W3C//DTD SVG 20010904//EN"
 "http://www.w3.org/TR/2001/REC-SVG-20010904/DTD/svg10.dtd">
<svg version="1.0" xmlns="http://www.w3.org/2000/svg"
 width="1980.000000pt" height="1980.000000pt" viewBox="0 0 1980.000000 1980.000000"
 preserveAspectRatio="xMidYMid meet">
<metadata>
Created by potrace 1.11, written by Peter Selinger 2001-2013
</metadata>
<g transform="translate(0.000000,1980.000000) scale(0.100000,-0.100000)"
fill="#000000" stroke="none">
<path d="M465 18265 c-5 -1 -30 -8 -55 -15 -197 -57 -342 -209 -390 -409 -18
-77 -19 -10547 0 -10635 39 -189 173 -340 361 -408 l64 -23 5681 -3 5682 -2 3
107 c2 60 3 329 3 598 0 435 -4 620 -19 869 -2 39 -7 125 -10 191 -4 66 -8
136 -10 155 -2 19 -6 82 -10 140 -3 58 -8 116 -10 130 -2 14 -7 66 -10 115 -3
50 -8 108 -10 130 -11 100 -15 144 -20 200 -5 62 -14 141 -20 185 -2 14 -6 57
-10 95 -4 39 -8 77 -10 86 -2 8 -6 48 -10 88 -3 40 -8 81 -10 91 -2 11 -6 45
-10 77 -3 32 -8 72 -10 88 -14 103 -25 186 -30 230 -8 69 -11 90 -35 255 -30
208 -34 240 -45 310 -2 14 -11 70 -19 125 -9 55 -17 109 -20 120 -2 11 -7 45
-11 75 -4 30 -9 64 -11 75 -2 11 -7 43 -10 70 -4 28 -8 53 -10 56 -2 4 -6 24
-9 45 -3 22 -10 62 -15 89 -5 28 -12 68 -15 90 -3 23 -7 52 -10 65 -3 13 -7
42 -10 65 -3 22 -8 48 -11 58 -4 11 -7 29 -8 40 -2 12 -6 36 -9 52 -3 17 -9
46 -11 65 -3 19 -8 46 -11 60 -3 14 -10 52 -15 85 -5 33 -12 71 -15 85 -6 28
-22 115 -31 170 -3 19 -10 55 -16 80 -5 25 -12 59 -14 75 -4 25 -18 94 -39
196 -2 9 -6 32 -9 50 -9 54 -15 86 -42 214 -13 66 -27 131 -29 145 -3 14 -7
39 -10 55 -4 17 -17 79 -31 140 -13 60 -26 119 -28 130 -2 11 -14 58 -26 105
-12 47 -23 92 -25 100 -14 69 -107 402 -166 600 -152 502 -453 1325 -623 1705
-8 17 -24 55 -37 85 -12 30 -26 59 -31 65 -4 5 -8 15 -8 22 0 7 -16 44 -35 84
-19 39 -37 80 -41 92 -7 22 -21 52 -123 270 -28 60 -51 110 -51 112 0 15 -400
823 -490 990 -20 39 -61 115 -90 170 -29 55 -73 135 -97 177 -23 43 -43 79
-43 82 0 3 -16 32 -35 65 l-36 61 -4312 -1 c-2372 0 -4316 -2 -4322 -4z"/>
<path d="M12593 18253 c109 -381 159 -554 166 -578 10 -32 80 -296 86 -324 2
-9 24 -99 50 -201 72 -287 106 -440 141 -613 2 -10 5 -26 8 -35 3 -9 8 -33 11
-52 3 -19 8 -46 10 -60 12 -59 15 -77 20 -105 3 -16 14 -77 25 -135 11 -58 25
-132 30 -165 6 -33 15 -82 20 -110 5 -27 12 -68 15 -90 3 -23 7 -50 9 -62 11
-53 41 -251 92 -603 3 -19 7 -46 9 -60 2 -14 9 -63 15 -110 17 -121 17 -120
24 -180 4 -30 9 -62 11 -70 2 -8 7 -44 10 -80 4 -36 8 -72 10 -80 1 -8 6 -40
9 -70 13 -105 17 -135 21 -160 2 -14 7 -54 10 -90 4 -36 9 -73 10 -82 2 -9 6
-45 10 -80 3 -35 7 -74 10 -88 2 -14 7 -52 10 -85 3 -33 8 -73 11 -90 2 -16 6
-55 9 -85 3 -30 7 -68 9 -85 2 -16 7 -61 11 -98 3 -37 8 -76 10 -85 1 -9 6
-53 10 -97 3 -44 8 -91 10 -105 2 -14 7 -59 10 -100 4 -41 9 -83 11 -93 2 -10
6 -48 9 -85 3 -37 7 -87 10 -112 3 -25 7 -72 10 -105 3 -33 8 -78 10 -100 11
-105 28 -288 50 -545 3 -36 7 -81 10 -100 2 -19 7 -71 10 -115 3 -44 7 -96 10
-115 2 -19 7 -71 10 -115 3 -44 8 -102 10 -130 3 -27 7 -80 10 -117 2 -38 7
-92 10 -120 2 -29 7 -84 10 -123 3 -38 7 -97 10 -130 2 -33 7 -96 10 -140 4
-44 8 -105 10 -135 10 -117 24 -318 31 -415 2 -38 6 -95 9 -125 3 -47 8 -116
20 -300 1 -19 3 -42 4 -50 1 -8 37 86 80 210 82 235 247 681 301 810 17 41 33
82 34 90 2 8 11 31 20 50 8 19 50 118 92 220 75 182 224 528 269 625 13 28 37
79 53 115 17 36 49 106 73 155 23 50 43 92 44 95 0 3 55 115 122 250 206 416
407 787 612 1128 64 106 125 207 135 225 58 96 284 434 389 581 123 173 283
383 358 471 14 16 34 41 45 54 25 32 149 175 199 231 62 69 361 367 445 444
109 100 346 303 480 411 25 20 54 44 65 53 178 150 825 595 1044 718 18 10 41
24 50 29 41 25 345 197 421 237 197 105 611 307 659 323 l23 7 -4 216 c-4 196
-7 223 -28 282 -61 171 -203 303 -379 352 -62 17 -212 18 -3434 18 -3206 0
-3369 -1 -3364 -17z"/>
<path d="M19752 13884 c-24 -13 -72 -39 -105 -58 -34 -18 -84 -46 -112 -61
-301 -167 -672 -401 -950 -600 -276 -198 -469 -356 -779 -638 -131 -120 -528
-528 -626 -644 -35 -41 -155 -178 -160 -183 -3 -3 -48 -57 -100 -120 -52 -63
-103 -124 -112 -135 -9 -11 -49 -60 -88 -110 -39 -49 -76 -97 -83 -105 -175
-217 -558 -791 -714 -1070 -11 -19 -43 -75 -71 -125 -160 -286 -341 -651 -476
-962 -85 -199 -252 -620 -260 -658 -1 -5 -4 -14 -7 -20 -21 -35 -229 -705
-244 -787 -3 -11 -9 -35 -15 -53 -6 -18 -12 -41 -14 -51 -2 -11 -9 -39 -16
-64 -7 -25 -14 -56 -17 -70 -2 -14 -10 -50 -18 -80 -23 -90 -80 -378 -91 -460
-3 -25 -8 -48 -11 -53 -2 -4 1041 -7 2319 -7 2495 0 2355 -2 2478 51 55 24
148 93 185 137 38 46 94 144 112 196 17 48 18 198 20 2821 2 1524 2 3031 1
3351 l-3 581 -43 -23z"/>
<path d="M2557 5934 c-1 -1 -65 -4 -142 -8 -133 -6 -174 -9 -255 -22 -19 -2
-55 -7 -80 -10 -37 -4 -195 -34 -263 -49 -26 -6 -188 -55 -217 -65 -14 -5 -38
-15 -55 -21 -16 -7 -32 -13 -35 -14 -56 -19 -230 -107 -299 -152 -312 -204
-535 -491 -664 -858 -32 -91 -54 -162 -62 -206 -2 -9 -8 -34 -14 -55 -23 -81
-55 -306 -67 -464 -13 -174 -7 -583 11 -692 2 -13 6 -45 10 -73 10 -82 16
-116 32 -195 8 -41 16 -82 18 -90 7 -37 30 -113 62 -210 152 -456 443 -789
863 -989 180 -85 387 -149 600 -185 276 -46 365 -51 990 -51 470 0 653 5 730
20 13 3 42 7 65 10 22 4 78 15 125 26 47 11 92 22 101 24 124 26 348 119 489
204 350 208 581 525 626 856 3 27 8 61 10 75 5 41 5 162 -1 204 -8 53 -59 145
-101 180 -19 16 -60 39 -91 52 -54 21 -70 23 -298 23 -248 1 -300 -5 -375 -44
-18 -10 -40 -23 -47 -31 -7 -7 -23 -21 -36 -31 -39 -31 -104 -124 -147 -213
-77 -156 -170 -274 -280 -356 -85 -63 -234 -118 -355 -131 -80 -9 -793 -9
-925 0 -140 10 -167 14 -289 44 -313 76 -488 251 -575 573 -27 100 -32 127
-42 200 -3 25 -7 56 -10 70 -24 147 -24 749 0 900 3 14 10 59 16 100 40 272
143 478 300 599 89 69 256 140 367 156 16 2 37 6 48 8 26 6 102 15 185 23 87
8 791 8 860 0 90 -11 170 -35 255 -76 161 -78 266 -190 373 -395 34 -66 82
-146 108 -178 54 -69 144 -130 216 -148 55 -13 459 -17 530 -5 83 13 179 80
214 149 35 66 44 120 39 232 -7 156 -19 222 -67 360 -28 78 -113 230 -173 305
-54 70 -221 222 -303 278 -193 132 -493 256 -717 296 -16 3 -41 8 -55 11 -76
14 -164 25 -237 31 -66 5 -960 12 -966 8z"/>
<path d="M16837 5934 c-1 -1 -63 -4 -138 -8 -75 -4 -145 -8 -155 -10 -11 -2
-50 -7 -89 -12 -38 -4 -72 -8 -75 -9 -8 -2 -92 -17 -120 -21 -14 -2 -46 -9
-71 -15 -26 -6 -55 -12 -65 -14 -11 -2 -19 -4 -19 -5 0 -1 -10 -3 -22 -6 -51
-9 -225 -69 -313 -107 -379 -164 -662 -430 -835 -787 -161 -331 -236 -713
-238 -1204 0 -132 9 -348 18 -412 8 -58 14 -97 20 -149 14 -105 58 -285 100
-413 180 -540 535 -899 1073 -1086 97 -34 228 -70 297 -82 17 -3 49 -9 73 -15
24 -5 62 -12 85 -15 23 -2 53 -7 67 -9 14 -2 57 -7 95 -10 39 -4 84 -9 100
-12 17 -3 287 -6 600 -7 516 -3 685 1 790 18 19 3 52 9 73 12 60 9 241 53 322
78 423 134 749 388 913 711 36 70 83 202 93 259 2 17 7 38 9 46 16 59 22 235
11 298 -18 94 -83 178 -173 220 l-58 27 -270 0 c-262 0 -272 -1 -329 -24 -92
-37 -186 -137 -255 -271 -88 -171 -124 -224 -216 -313 -102 -99 -261 -174
-408 -193 -70 -10 -883 -10 -977 0 -368 35 -574 134 -715 343 -75 110 -137
297 -161 483 -3 25 -7 55 -9 68 -24 148 -24 735 -1 882 3 14 7 43 10 65 19
153 73 332 133 440 57 105 176 219 283 272 87 42 229 88 310 98 25 3 56 8 70
10 74 13 213 17 560 17 406 -1 485 -7 597 -50 96 -36 186 -94 258 -166 79 -79
122 -140 186 -266 80 -160 157 -249 253 -294 74 -35 116 -39 369 -39 193 0
235 3 275 18 111 42 177 115 202 223 11 50 9 202 -4 287 -78 500 -492 896
-1116 1066 -172 47 -349 75 -505 79 -97 2 -906 6 -908 4z"/>
<path d="M5377 5896 c-103 -37 -159 -124 -136 -208 5 -21 32 -86 59 -144 28
-58 50 -107 50 -109 0 -1 24 -54 54 -116 52 -111 79 -170 136 -294 15 -33 42
-91 60 -130 18 -38 43 -93 56 -120 12 -28 41 -91 64 -140 23 -50 51 -109 61
-133 11 -24 42 -91 70 -148 27 -58 49 -107 49 -109 0 -2 20 -45 44 -97 24 -51
67 -145 96 -208 29 -63 74 -162 101 -218 27 -57 49 -105 49 -107 0 -1 22 -49
49 -106 27 -57 74 -158 104 -224 30 -66 74 -160 97 -210 23 -49 51 -110 62
-135 21 -45 284 -617 350 -760 19 -41 47 -102 63 -135 123 -268 144 -303 222
-381 53 -52 94 -75 176 -99 48 -14 105 -16 340 -16 155 0 291 2 302 5 92 20
151 48 211 100 79 68 113 129 308 559 43 93 99 216 127 274 27 58 49 106 49
108 0 1 20 45 44 96 49 105 225 484 263 569 34 74 78 170 118 255 18 39 44 95
58 125 38 84 140 305 182 395 20 44 62 134 92 200 30 66 66 145 80 175 14 30
41 87 58 125 53 114 390 845 418 905 14 30 44 96 67 145 23 50 43 106 45 125
6 66 -36 134 -110 173 -39 21 -52 22 -433 24 -433 3 -441 2 -528 -63 -83 -61
-120 -113 -189 -261 -31 -65 -60 -126 -65 -135 -6 -10 -10 -22 -10 -27 0 -5
-25 -61 -55 -125 -30 -64 -55 -118 -55 -121 0 -3 -16 -40 -36 -82 -20 -43 -72
-159 -116 -258 -44 -99 -95 -213 -114 -253 -19 -40 -34 -74 -34 -76 0 -2 -18
-42 -39 -88 -21 -45 -55 -119 -74 -163 -37 -83 -159 -357 -195 -435 -27 -59
-65 -144 -112 -250 -46 -104 -82 -182 -126 -278 -19 -41 -34 -75 -34 -77 0 -2
-18 -43 -40 -90 -22 -47 -40 -90 -40 -95 0 -5 -4 -11 -9 -14 -5 -3 -30 43 -56
102 -27 59 -80 179 -120 267 -40 88 -150 333 -245 545 -94 212 -194 432 -220
490 -26 58 -96 213 -155 344 -138 311 -142 320 -175 391 -15 33 -72 159 -126
280 -54 121 -112 243 -129 270 -47 73 -116 139 -182 172 l-58 28 -390 2 c-309
2 -398 0 -428 -11z"/>
<path d="M10392 5891 c-73 -25 -122 -67 -157 -136 l-30 -59 0 -210 c0 -141 4
-225 13 -253 19 -63 92 -138 160 -164 56 -21 64 -21 762 -23 l705 -1 0 -1635
c0 -1770 -3 -1656 53 -1742 29 -44 100 -94 155 -109 44 -12 681 -15 718 -4
119 36 198 118 215 222 4 21 7 765 8 1653 l1 1615 695 1 c507 1 707 5 739 14
93 25 160 89 192 182 14 41 16 85 15 251 -2 189 -4 205 -26 251 -29 59 -78
108 -139 138 l-46 23 -1990 2 c-1908 2 -1992 2 -2043 -16z"/>
</g>
</svg>
